<svg width="120.000000" height="25.000000" viewBox="0 0 120 25" fill="none" xmlns="http://www.w3.org/2000/svg" xmlns:xlink="http://www.w3.org/1999/xlink">
	<desc>
			Created with Pixso.
	</desc>
	<defs>
		<clipPath id="clip2_271">
			<rect width="120.000000" height="24.303797" fill="white" fill-opacity="0"/>
		</clipPath>
	</defs>
	<rect width="120.000000" height="24.303797" fill="#FFFFFF" fill-opacity="0"/>
	<g clip-path="url(#clip2_271)">
		<path d="M119.78 18.56L119.78 21.53L117.29 21.53C114.63 21.44 113.21 20.01 113.21 17.31L113.21 10.53L111.47 10.53L111.47 7.92L113.21 7.92L113.21 5.01L116.89 5.01L116.89 7.89L119.7 7.89L119.7 10.49L116.89 10.49L116.89 16.95C116.89 17.82 117.06 18.52 118.41 18.52L119.78 18.56Z" fill="#FFFFFF" fill-opacity="1.000000" fill-rule="nonzero"/>
		<path d="M96.82 14.75L96.82 14.55C96.78 13.68 96.92 12.81 97.21 11.99C97.51 11.16 97.97 10.41 98.56 9.76C99.15 9.12 99.86 8.6 100.66 8.23C101.45 7.86 102.31 7.65 103.18 7.61C103.36 7.61 103.54 7.61 103.71 7.61C107.18 7.61 110.23 9.63 110.23 14.45L110.23 15.47L100.58 15.47C100.68 17.69 101.88 18.94 103.9 18.94C105.64 18.94 106.45 18.18 106.69 17.08L110.16 17.08C109.73 19.97 107.43 21.58 103.77 21.58C99.76 21.55 96.82 19.01 96.82 14.75ZM106.61 13.15C106.48 11.13 105.47 10.16 103.7 10.16C101.93 10.16 100.91 11.25 100.66 13.15L106.61 13.15Z" fill="#FFFFFF" fill-opacity="1.000000" fill-rule="nonzero"/>
		<path d="M81.82 14.75L81.82 14.55C81.78 13.68 81.91 12.81 82.21 11.99C82.5 11.17 82.96 10.41 83.55 9.77C84.14 9.12 84.85 8.6 85.64 8.23C86.43 7.86 87.28 7.65 88.16 7.61C88.33 7.61 88.51 7.61 88.69 7.61C92.16 7.61 95.21 9.63 95.21 14.45L95.21 15.47L85.57 15.47C85.67 17.69 86.87 18.94 88.89 18.94C90.63 18.94 91.45 18.18 91.68 17.08L95.15 17.08C94.72 19.97 92.41 21.58 88.76 21.58C84.75 21.55 81.82 19.01 81.82 14.75ZM91.61 13.15C91.48 11.13 90.46 10.16 88.69 10.16C86.92 10.16 85.93 11.28 85.65 13.14L91.61 13.15Z" fill="#FFFFFF" fill-opacity="1.000000" fill-rule="nonzero"/>
		<path d="M60.75 7.89L64.64 7.89L67.02 16.9L69.63 7.89L72.66 7.89L75.02 16.9L77.52 7.89L81.09 7.89L76.86 21.28L73.22 21.28L70.94 12.88L68.5 21.28L64.81 21.28L60.75 7.89Z" fill="#FFFFFF" fill-opacity="1.000000" fill-rule="nonzero"/>
		<path d="M48.4 17.07L51.87 17.07C52.03 18.28 52.63 18.97 54.22 18.97C55.65 18.97 56.31 18.43 56.31 17.51C56.31 16.59 55.55 16.2 53.61 15.93C50.05 15.39 48.67 14.36 48.67 11.75C48.67 8.96 51.22 7.58 53.99 7.58C56.96 7.58 59.2 8.66 59.52 11.74L56.09 11.74C56.07 11.5 56 11.27 55.89 11.06C55.78 10.85 55.62 10.66 55.44 10.51C55.26 10.36 55.04 10.24 54.82 10.17C54.59 10.1 54.35 10.08 54.11 10.1L54 10.1C52.8 10.1 52.1 10.67 52.1 11.49C52.1 12.31 52.74 12.66 54.7 12.94C58.03 13.45 59.89 14.29 59.89 17.15C59.89 20.02 57.79 21.55 54.26 21.55C50.74 21.55 48.5 19.96 48.4 17.07Z" fill="#FFFFFF" fill-opacity="1.000000" fill-rule="nonzero"/>
		<path d="M33.65 7.89L37.32 7.89L37.32 10.01C37.74 9.23 38.37 8.59 39.14 8.16C39.9 7.73 40.78 7.53 41.66 7.58C44.27 7.58 46.16 9.17 46.16 12.79L46.16 21.31L42.53 21.31L42.53 13.32C42.53 11.51 41.82 10.64 40.18 10.64C39.83 10.61 39.48 10.65 39.15 10.76C38.82 10.86 38.51 11.03 38.25 11.26C37.98 11.48 37.76 11.76 37.6 12.06C37.44 12.37 37.35 12.71 37.32 13.06C37.3 13.22 37.3 13.38 37.32 13.54L37.32 21.28L33.65 21.28L33.65 7.89Z" fill="#FFFFFF" fill-opacity="1.000000" fill-rule="nonzero"/>
		<path d="M26.55 4.53C26.54 4.16 26.64 3.8 26.83 3.49C27.02 3.18 27.3 2.93 27.64 2.78C27.97 2.62 28.34 2.57 28.7 2.63C29.07 2.69 29.4 2.86 29.67 3.11C29.94 3.36 30.13 3.68 30.21 4.04C30.29 4.39 30.27 4.77 30.14 5.11C30.01 5.46 29.79 5.75 29.49 5.97C29.19 6.18 28.84 6.3 28.47 6.31L28.4 6.31C28.17 6.33 27.94 6.3 27.73 6.22C27.51 6.15 27.31 6.03 27.14 5.88C26.97 5.73 26.83 5.55 26.73 5.34C26.63 5.14 26.58 4.92 26.56 4.69C26.56 4.64 26.55 4.58 26.55 4.53ZM26.55 7.89L30.27 7.89L30.27 21.28L26.57 21.28L26.55 7.89Z" fill="#FFFFFF" fill-opacity="1.000000" fill-rule="nonzero"/>
		<path d="M12.56 2.99L24.3 2.99L24.3 6.23L16.7 6.23L16.7 11.07L22.72 11.07L22.72 14.19L16.7 14.19L16.7 21.28L12.56 21.28L12.56 2.99Z" fill="#FFFFFF" fill-opacity="1.000000" fill-rule="nonzero"/>
		<path d="M5.47 8.97C5.47 10.12 5.47 11.52 3.89 12.09C5.51 12.64 5.47 13.82 5.47 15.05L5.47 19.61C5.47 20.47 5.82 21 6.44 21.12C6.58 21.17 6.72 21.19 6.87 21.18L8.39 21.18L8.39 24.22L5.88 24.22C3.21 24.22 1.73 22.7 1.73 19.89L1.73 14.49C1.72 14.22 1.59 13.96 1.39 13.77C1.19 13.57 0.93 13.47 0.65 13.46L0 13.46L0 10.8L0.65 10.8C0.93 10.79 1.2 10.68 1.4 10.48C1.61 10.28 1.72 10.01 1.73 9.73L1.73 4.26C1.73 1.49 3.18 0 5.88 0L8.41 0L8.41 2.99L6.89 2.99C6.75 2.99 6.6 3.01 6.47 3.06C5.84 3.22 5.49 3.73 5.49 4.57L5.47 8.97Z" fill="#FFFFFF" fill-opacity="1.000000" fill-rule="nonzero"/>
	</g>
</svg>
