<svg width="122.000000" height="25.000000" viewBox="0 0 122 25" fill="none" xmlns="http://www.w3.org/2000/svg" xmlns:xlink="http://www.w3.org/1999/xlink">
	<desc>
			Created with Pixso.
	</desc>
	<defs>
		<clipPath id="clip2_19">
			<rect width="122.000000" height="24.708860" fill="white" fill-opacity="0"/>
		</clipPath>
	</defs>
	<rect width="122.000000" height="24.708860" fill="#FFFFFF" fill-opacity="0"/>
	<g clip-path="url(#clip2_19)">
		<path d="M121.78 18.87L121.78 21.89L119.25 21.89C116.54 21.8 115.1 20.34 115.1 17.6L115.1 10.7L113.33 10.7L113.33 8.06L115.1 8.06L115.1 5.09L118.84 5.09L118.84 8.03L121.69 8.03L121.69 10.67L118.84 10.67L118.84 17.23C118.84 18.12 119.02 18.83 120.38 18.83L121.78 18.87Z" fill="#063255" fill-opacity="1.000000" fill-rule="nonzero"/>
		<path d="M98.44 15L98.44 14.8C98.4 13.91 98.53 13.02 98.83 12.19C99.14 11.35 99.6 10.58 100.2 9.93C100.8 9.27 101.53 8.74 102.33 8.37C103.14 7.99 104.01 7.78 104.9 7.74C105.08 7.74 105.26 7.74 105.44 7.74C108.97 7.74 112.07 9.79 112.07 14.69L112.07 15.73L102.26 15.73C102.36 17.99 103.58 19.26 105.63 19.26C107.4 19.26 108.23 18.49 108.47 17.36L112 17.36C111.56 20.3 109.22 21.94 105.5 21.94C101.43 21.91 98.44 19.33 98.44 15ZM108.39 13.37C108.26 11.31 107.22 10.33 105.42 10.33C103.63 10.33 102.59 11.44 102.34 13.37L108.39 13.37Z" fill="#063255" fill-opacity="1.000000" fill-rule="nonzero"/>
		<path d="M83.18 15L83.18 14.8C83.14 13.91 83.27 13.02 83.58 12.19C83.88 11.35 84.34 10.59 84.94 9.93C85.54 9.28 86.26 8.75 87.07 8.37C87.87 7.99 88.74 7.78 89.63 7.74C89.8 7.74 89.99 7.74 90.17 7.74C93.7 7.74 96.8 9.79 96.8 14.69L96.8 15.73L87 15.73C87.1 17.99 88.32 19.26 90.38 19.26C92.14 19.26 92.97 18.49 93.21 17.36L96.74 17.36C96.3 20.3 93.95 21.94 90.24 21.94C86.17 21.91 83.18 19.33 83.18 15ZM93.13 13.37C93 11.31 91.97 10.33 90.17 10.33C88.37 10.33 87.36 11.47 87.08 13.36L93.13 13.37Z" fill="#063255" fill-opacity="1.000000" fill-rule="nonzero"/>
		<path d="M61.77 8.03L65.72 8.03L68.14 17.18L70.79 8.03L73.87 8.03L76.27 17.18L78.82 8.03L82.44 8.03L78.14 21.63L74.44 21.63L72.12 13.09L69.64 21.63L65.89 21.63L61.77 8.03Z" fill="#063255" fill-opacity="1.000000" fill-rule="nonzero"/>
		<path d="M49.2 17.35L52.73 17.35C52.9 18.58 53.51 19.28 55.13 19.28C56.58 19.28 57.25 18.74 57.25 17.8C57.25 16.87 56.48 16.47 54.5 16.19C50.88 15.65 49.48 14.6 49.48 11.95C49.48 9.11 52.08 7.71 54.89 7.71C57.91 7.71 60.18 8.81 60.51 11.93L57.03 11.93C57 11.69 56.93 11.46 56.82 11.24C56.71 11.03 56.55 10.84 56.36 10.68C56.18 10.53 55.96 10.41 55.73 10.34C55.5 10.27 55.25 10.25 55.01 10.27L54.89 10.27C53.67 10.27 52.96 10.84 52.96 11.68C52.96 12.51 53.62 12.87 55.61 13.16C59 13.67 60.89 14.53 60.89 17.44C60.89 20.35 58.75 21.91 55.17 21.91C51.58 21.91 49.3 20.29 49.2 17.35Z" fill="#063255" fill-opacity="1.000000" fill-rule="nonzero"/>
		<path d="M34.21 8.03L37.95 8.03L37.95 10.18C38.37 9.39 39.01 8.74 39.79 8.3C40.57 7.86 41.46 7.66 42.36 7.71C45 7.71 46.93 9.32 46.93 13.01L46.93 21.66L43.24 21.66L43.24 13.55C43.24 11.7 42.52 10.82 40.85 10.82C40.5 10.79 40.14 10.83 39.8 10.94C39.47 11.04 39.15 11.22 38.88 11.44C38.61 11.67 38.39 11.95 38.23 12.27C38.07 12.58 37.97 12.92 37.94 13.28C37.92 13.44 37.92 13.61 37.94 13.77L37.94 21.63L34.21 21.63L34.21 8.03Z" fill="#063255" fill-opacity="1.000000" fill-rule="nonzero"/>
		<path d="M27 4.6C26.98 4.23 27.08 3.86 27.28 3.55C27.47 3.23 27.76 2.98 28.1 2.82C28.44 2.67 28.81 2.62 29.18 2.68C29.55 2.74 29.89 2.9 30.16 3.16C30.44 3.41 30.63 3.74 30.71 4.11C30.8 4.47 30.78 4.85 30.64 5.2C30.51 5.55 30.28 5.85 29.98 6.07C29.68 6.28 29.32 6.41 28.94 6.42L28.87 6.42C28.64 6.43 28.41 6.4 28.19 6.33C27.97 6.25 27.77 6.13 27.6 5.98C27.42 5.83 27.28 5.64 27.18 5.43C27.08 5.22 27.02 5 27.01 4.77C27 4.71 27 4.66 27 4.6ZM27 8.03L30.77 8.03L30.77 21.63L27.01 21.63L27 8.03Z" fill="#063255" fill-opacity="1.000000" fill-rule="nonzero"/>
		<path d="M12.77 3.04L24.7 3.04L24.7 6.33L16.98 6.33L16.98 11.25L23.1 11.25L23.1 14.43L16.97 14.43L16.97 21.63L12.77 21.63L12.77 3.04Z" fill="#063255" fill-opacity="1.000000" fill-rule="nonzero"/>
		<path d="M5.56 9.12C5.56 10.29 5.56 11.71 3.96 12.29C5.6 12.85 5.56 14.05 5.56 15.3L5.56 19.93C5.56 20.81 5.92 21.35 6.55 21.48C6.69 21.52 6.84 21.54 6.98 21.54L8.53 21.54L8.53 24.63L5.98 24.63C3.26 24.63 1.76 23.08 1.76 20.22L1.76 14.74C1.74 14.45 1.62 14.19 1.42 14C1.21 13.8 0.94 13.69 0.66 13.69L0 13.69L0 10.98L0.66 10.98C0.95 10.97 1.22 10.86 1.43 10.66C1.63 10.45 1.75 10.18 1.76 9.89L1.76 4.33C1.76 1.52 3.23 0 5.98 0L8.55 0L8.55 3.04L7.01 3.04C6.86 3.04 6.71 3.06 6.57 3.11C5.94 3.27 5.59 3.79 5.59 4.65L5.56 9.12Z" fill="#063255" fill-opacity="1.000000" fill-rule="nonzero"/>
	</g>
</svg>
